<svg xmlns="http://www.w3.org/2000/svg" viewBox="0 0 512 512" role="img" aria-labelledby="title desc">
  <title id="title">Mluva CHT</title>
  <desc id="desc">Zlatá bublina řeči s bodem paměti na tmavém podkladu.</desc>
  <defs>
    <linearGradient id="bg" x1="0" x2="1" y1="0" y2="1">
      <stop stop-color="#2c210e"/>
      <stop offset="1" stop-color="#090806"/>
    </linearGradient>
    <linearGradient id="gold" x1="0" x2="1" y1="0" y2="1">
      <stop stop-color="#fff0c5"/>
      <stop offset="1" stop-color="#c79b33"/>
    </linearGradient>
  </defs>
  <rect width="512" height="512" rx="112" fill="url(#bg)"/>
  <circle cx="256" cy="256" r="186" fill="none" stroke="#ffe2ad" stroke-opacity=".22" stroke-width="6"/>
  <path d="M126 166c0-28 23-51 51-51h158c28 0 51 23 51 51v111c0 28-23 51-51 51H239l-69 63c-9 8-23 2-23-10v-53c-13-8-21-22-21-38V166Z" fill="url(#gold)"/>
  <circle cx="203" cy="221" r="17" fill="#211807"/>
  <circle cx="256" cy="221" r="17" fill="#211807"/>
  <circle cx="309" cy="221" r="17" fill="#211807"/>
  <path d="M202 270c28 25 80 25 108 0" fill="none" stroke="#211807" stroke-linecap="round" stroke-width="16"/>
  <circle cx="360" cy="345" r="39" fill="#090806" stroke="#ffe2ad" stroke-width="7"/>
  <path d="M360 325v41M340 346h40" stroke="#ffe2ad" stroke-linecap="round" stroke-width="8"/>
</svg>
